:version 1.10
:name ASF
:units
  mass 1
  length 1
  angle deg
:documentation
  ASF file generated by Kaydara
:root
  axis xyz
  order  tx ty tz rx ry rz
  position 0 0 0
  orientation 0 0 0
:bonedata
  begin
    id 1
    name RightUpLegDummy
    direction -0.718183 -0.695806 0.00816078
    length 4.904
    axis 0 0 0 xyz
  end
  begin
    id 2
    name RightUpLeg
    direction -0.0736652 -0.994202 0.0783343
    length 17.4976
    axis -2.72909 -3.00389 -4.00133 xyz
    dof rx ry rz
  end
  begin
    id 3
    name RightLeg
    direction -0.0389037 -0.994596 -0.0962598
    length 16.5821
    axis 3.95836 -18.5909 -4.46993 xyz
    dof rx ry rz
  end
  begin
    id 4
    name RightFoot
    direction -0.311643 -0.412678 0.855906
    length 3.77069
    axis -1.99483 -18.8351 -3.27644 xyz
    dof rx ry rz
  end
  begin
    id 5
    name RightToes
    direction -0.317852 0.0389852 0.947339
    length 3.85082
    axis -2.00228 -18.1713 -3.25211 xyz
    dof rx ry rz
  end
  begin
    id 6
    name SpineDummy
    direction 8.3039e-015 1 4.44677e-016
    length 4.6813
    axis 0 0 0 xyz
  end
  begin
    id 7
    name Spine
    direction -0.000262373 0.999988 0.00493267
    length 10.1015
    axis -0.00246081 0.00062579 0.0150362 xyz
    dof rx ry rz
  end
  begin
    id 8
    name Spine1
    direction 0 0 0
    length 0
    axis -0.00349562 0.000650293 0.0196666 xyz
    dof rx ry rz
  end
  begin
    id 9
    name HEadDummy
    direction -0.000343232 0.999999 0.00123745
    length 3.43865
    axis -0.00349562 0.000650293 0.0196666 xyz
  end
  begin
    id 10
    name HEad
    direction -0.0461221 0.980933 0.188796
    length 5.12695
    axis -0.00351404 -7.04812 0.0199272 xyz
    dof rx ry rz
  end
  begin
    id 11
    name LeftShoulder1Dummy
    direction 0.998904 -0.0399089 -0.0244534
    length 3.5433
    axis -0.00349562 0.000650293 0.0196666 xyz
  end
  begin
    id 12
    name LeftShoulder1
    direction 0.99951 1.64443e-005 0.0312999
    length 4.05031
    axis -0.00349562 0.000650293 0.0196666 xyz
    dof rx ry rz
  end
  begin
    id 13
    name LeftArm
    direction 0.984791 0.0515299 0.165927
    length 12.9126
    axis -64.823 -10.7743 5.20463 xyz
    dof rx ry rz
  end
  begin
    id 14
    name LeftForeArm
    direction 0.984968 0.0534808 0.16425
    length 10.8596
    axis -30.0462 -7.70601 1.87451 xyz
    dof rx ry rz
  end
  begin
    id 15
    name LeftHand
    direction 0.975871 0.0289682 0.216418
    length 6.62295
    axis -20.1348 -6.98077 1.86072 xyz
    dof rx ry rz
  end
  begin
    id 16
    name RightShoulderDummy
    direction -0.998877 -0.0405946 -0.0244307
    length 3.5433
    axis -0.00349562 0.000650293 0.0196666 xyz
  end
  begin
    id 17
    name RightShoulder
    direction -0.998933 -0.0249743 -0.0388558
    length 4.05031
    axis -0.0205316 -4.02113 1.41395 xyz
    dof rx ry rz
  end
  begin
    id 18
    name RightArm
    direction -0.997559 0.068664 0.0127103
    length 12.9638
    axis -67.3882 1.84188 -6.15987 xyz
    dof rx ry rz
  end
  begin
    id 19
    name RightForeArm
    direction -0.991508 0.0912848 0.0926241
    length 10.8312
    axis -22.1975 3.41087 -4.28711 xyz
    dof rx ry rz
  end
  begin
    id 20
    name RightHand
    direction -0.989262 0.0600788 0.133232
    length 6.57864
    axis -12.2911 2.17515 -4.39675 xyz
    dof rx ry rz
  end
  begin
    id 21
    name LeftUpLegDummy
    direction 0.718183 -0.695806 0.00816078
    length 4.904
    axis 0 0 0 xyz
  end
  begin
    id 22
    name LeftUpLeg
    direction 0.0831398 -0.99469 0.0606531
    length 17.4976
    axis -1.71016 2.29552 4.63832 xyz
    dof rx ry rz
  end
  begin
    id 23
    name LeftLeg
    direction 0.0498442 -0.991778 -0.117862
    length 16.5821
    axis 5.13757 15.5727 5.13348 xyz
    dof rx ry rz
  end
  begin
    id 24
    name LeftFoot
    direction 0.269026 -0.433896 0.85986
    length 3.77069
    axis -0.576502 15.6961 4.10267 xyz
    dof rx ry rz
  end
  begin
    id 25
    name LeftToes
    direction 0.277311 0.0251143 0.960452
    length 3.85048
    axis -0.576502 15.6961 4.10267 xyz
    dof rx ry rz
  end
:hierarchy
  begin
    root RightUpLegDummy SpineDummy LeftUpLegDummy
    RightUpLegDummy RightUpLeg
    RightUpLeg RightLeg
    RightLeg RightFoot
    RightFoot RightToes
    SpineDummy Spine
    Spine Spine1
    Spine1 HEadDummy LeftShoulder1Dummy RightShoulderDummy
    HEadDummy HEad
    LeftShoulder1Dummy LeftShoulder1
    LeftShoulder1 LeftArm
    LeftArm LeftForeArm
    LeftForeArm LeftHand
    RightShoulderDummy RightShoulder
    RightShoulder RightArm
    RightArm RightForeArm
    RightForeArm RightHand
    LeftUpLegDummy LeftUpLeg
    LeftUpLeg LeftLeg
    LeftLeg LeftFoot
    LeftFoot LeftToes
  end

:SAMPLES-PER-SECOND 30
:FULLY-SPECIFIED
:DEGREES
38
root  -6.09169 40.1389 86.4671 178.257 3.44745 179.824
RightUpLeg  -2.72358 -4.45283 -2.50881
RightLeg  11.0712 -4.412 -2.29814
RightFoot  -5.29838 -0.285446 4.26354
RightToes  -5.82073e-011 -3.18055e-015 -2.98177e-016
Spine  2.39762 0.490926 -0.581859
Spine1  5.7965 0.318406 2.24662
HEad  6.39379 -4.79612 2.45063
LeftShoulder1  -3.88251e-019 9.70628e-020 -3.87848e-018
LeftArm  -25.756 52.65 -72.1915
LeftForeArm  10.6901 -9.76458 -3.92152
LeftHand  -0.658252 -2.43906 10.4591
RightShoulder  7.5775 10.5024 35.8439
RightArm  5.11913 -40.954 16.8869
RightForeArm  18.8484 13.1162 -5.80343
RightHand  -1.35062 2.68087 -19.0669
LeftUpLeg  -4.44809 -3.23285 -4.11782
LeftLeg  12.8455 10.3151 7.1694
LeftFoot  -8.99687 0.113659 -3.85907
LeftToes  -2.27483e-011 -5.53417e-011 9.36564e-012
39
root  -6.15184 40.0317 86.4579 178.258 2.86719 179.302
RightUpLeg  -3.94068 -7.51582 -3.24883
RightLeg  13.4987 -1.53618 -2.94681
RightFoot  -6.44427 -0.229694 4.13278
RightToes  -5.82073e-011 -3.18055e-015 -2.98177e-016
Spine  2.80459 0.580596 -1.77028
Spine1  5.97138 0.235943 2.72153
HEad  8.06087 -5.4069 3.16035
LeftShoulder1  -3.88251e-019 9.70628e-020 -3.87848e-018
LeftArm  -25.9655 52.2152 -72.9028
LeftForeArm  10.4263 -10.6227 -3.94168
LeftHand  -0.635757 -2.19071 10.4439
RightShoulder  7.61352 10.5088 36.0113
RightArm  4.11324 -39.5741 16.911
RightForeArm  23.8287 10.9285 -5.34939
RightHand  -1.72441 4.43137 -20.0676
LeftUpLeg  -4.97866 -3.21843 -4.76782
LeftLeg  13.9815 9.91062 7.55918
LeftFoot  -10.5604 0.0730546 -4.59163
LeftToes  -2.27483e-011 -5.53417e-011 9.36564e-012
40
root  -6.20492 39.8982 86.4754 178.453 2.99266 178.572
RightUpLeg  -6.38666 -12.314 -3.63433
RightLeg  16.9229 3.16994 -4.34709
RightFoot  -7.48116 -0.207174 4.49475
RightToes  -5.82073e-011 -3.18055e-015 -2.98177e-016
Spine  3.32038 0.793501 -3.51886
Spine1  6.0754 0.168234 3.42716
HEad  9.99739 -5.63794 3.45688
LeftShoulder1  -3.88251e-019 9.70628e-020 -3.87848e-018
LeftArm  -25.8525 52.1842 -73.5555
LeftForeArm  9.92161 -12.1009 -3.95153
LeftHand  -0.611183 -2.02909 10.2714
RightShoulder  7.56329 10.458 35.8712
RightArm  2.96727 -36.8927 18.1344
RightForeArm  32.2813 7.40667 -4.95925
RightHand  -2.18229 6.8937 -20.37
LeftUpLeg  -5.74717 -2.74463 -5.57552
LeftLeg  15.2096 9.4152 7.92792
LeftFoot  -11.8457 0.0267048 -5.38465
LeftToes  -2.27483e-011 -5.53417e-011 9.36564e-012
41
root  -6.244 39.7581 86.5191 178.861 3.96478 177.898
RightUpLeg  -10.1969 -13.8875 -3.54718
RightLeg  21.7072 4.31481 -6.23092
RightFoot  -7.60538 -0.209457 4.65865
RightToes  -5.82073e-011 -3.18055e-015 -2.98177e-016
Spine  4.20294 1.09709 -5.34926
Spine1  5.74938 0.117491 4.39867
HEad  11.904 -5.33591 3.25647
LeftShoulder1  -3.88251e-019 9.70628e-020 -3.87848e-018
LeftArm  -25.0662 52.8665 -73.9022
LeftForeArm  8.90375 -14.3768 -4.00294
LeftHand  -0.608391 -2.00236 10.2628
RightShoulder  7.40749 10.3576 35.3046
RightArm  1.50499 -33.5665 20.3285
RightForeArm  39.6782 3.901 -4.72568
RightHand  -2.3069 8.19671 -19.4899
LeftUpLeg  -6.81071 -1.91663 -6.30281
LeftLeg  16.5556 9.32698 8.4789
LeftFoot  -12.8196 -0.0197524 -6.18633
LeftToes  -2.27483e-011 -5.53417e-011 9.36564e-012
42
root  -6.25639 39.626 86.5786 179.463 5.42729 177.487
RightUpLeg  -14.5056 -13.6199 -3.00281
RightLeg  26.6002 2.86437 -8.15298
RightFoot  -6.96523 -0.17548 3.52457
RightToes  -5.82073e-011 -3.18055e-015 -2.98177e-016
Spine  5.34397 1.38109 -6.527
Spine1  5.27723 0.146837 5.0671
HEad  12.9936 -4.69331 3.0226
LeftShoulder1  -3.88251e-019 9.70628e-020 -3.87848e-018
LeftArm  -22.5102 53.871 -73.5381
LeftForeArm  6.90031 -17.1542 -3.85797
LeftHand  -0.633314 -2.11238 10.5155
RightShoulder  7.24367 10.2624 34.677
RightArm  0.0108377 -30.4968 22.788
RightForeArm  41.4883 2.11779 -4.74029
RightHand  -2.04394 8.00153 -17.5626
LeftUpLeg  -8.13438 -1.20797 -6.77355
LeftLeg  17.9221 9.91491 9.3227
LeftFoot  -13.5006 -0.0601608 -6.73624
LeftToes  -2.27483e-011 -5.53417e-011 9.36564e-012
43
root  -6.24582 39.5445 86.6484 -179.721 6.73413 177.565
RightUpLeg  -18.1327 -14.7928 -1.43407
RightLeg  28.9948 1.8072 -9.52373
RightFoot  -6.83068 -0.107099 2.19381
RightToes  -5.82073e-011 -3.18055e-015 -2.98177e-016
Spine  6.54797 1.48654 -6.34408
Spine1  5.16108 0.235019 4.96195
HEad  12.6732 -4.08812 3.20141
LeftShoulder1  -3.88251e-019 9.70628e-020 -3.87848e-018
LeftArm  -17.7465 54.3453 -72.3555
LeftForeArm  3.9438 -19.5472 -3.20494
LeftHand  -0.690249 -2.50053 10.8695
RightShoulder  7.12128 10.1781 34.2308
RightArm  -0.926213 -28.146 24.9617
RightForeArm  38.2417 2.79258 -4.91859
RightHand  -1.78286 7.45266 -16.0183
LeftUpLeg  -9.59468 -0.719745 -6.71174
LeftLeg  18.9911 10.4172 10.0519
LeftFoot  -13.7642 -0.0770543 -6.80655
LeftToes  -2.27483e-011 -5.53417e-011 9.36564e-012
44
root  -6.21846 39.5455 86.7207 -178.793 7.71541 178.12
RightUpLeg  -20.4485 -17.1239 1.04409
RightLeg  27.6533 1.79501 -9.10303
RightFoot  -7.82613 -0.0957125 2.49174
RightToes  -5.82073e-011 -3.18055e-015 -2.98177e-016
Spine  7.8488 1.44607 -4.96938
Spine1  5.52447 0.342143 4.32273
HEad  11.1579 -3.58445 3.51645
LeftShoulder1  -3.88251e-019 9.70628e-020 -3.87848e-018
LeftArm  -13.7987 53.9363 -70.8403
LeftForeArm  2.36653 -20.6833 -2.71254
LeftHand  -0.780351 -3.12278 11.3473
RightShoulder  6.98806 10.0762 33.7614
RightArm  -0.985716 -26.2335 26.8012
RightForeArm  33.8784 5.22093 -5.08269
RightHand  -1.72861 7.26443 -15.7572
LeftUpLeg  -10.8815 0.0514405 -6.0665
LeftLeg  19.4873 10.2126 10.2302
LeftFoot  -13.6424 -0.0689243 -6.68826
LeftToes  -2.27483e-011 -5.53417e-011 9.36564e-012
45
root  -6.16378 39.5819 86.7741 -177.84 8.74423 178.864
RightUpLeg  -21.7826 -19.6212 4.10054
RightLeg  23.3999 4.24649 -6.6562
RightFoot  -8.38351 -0.138339 3.73152
RightToes  -5.82073e-011 -3.18055e-015 -2.98177e-016
Spine  9.23948 1.45387 -3.29047
Spine1  6.09376 0.479154 3.87826
HEad  9.14313 -2.92509 3.28673
LeftShoulder1  -3.88251e-019 9.70628e-020 -3.87848e-018
LeftArm  -12.8339 53.0359 -69.7199
LeftForeArm  2.80686 -20.4921 -2.92188
LeftHand  -0.865689 -3.5553 11.9498
RightShoulder  6.78451 9.96587 32.9309
RightArm  -0.464422 -24.3151 28.6603
RightForeArm  30.5831 8.07026 -5.14268
RightHand  -1.75749 6.95845 -16.399
LeftUpLeg  -11.9338 1.49717 -5.17607
LeftLeg  19.6535 9.73833 10.1319
LeftFoot  -13.4637 -0.0581027 -6.70994
LeftToes  -2.27483e-011 -5.53417e-011 9.36564e-012
46
root  -6.04896 39.5505 86.7908 -176.589 9.75232 179.4
RightUpLeg  -23.002 -19.4983 6.46225
RightLeg  19.1231 7.17322 -3.87547
RightFoot  -6.86785 -0.165997 3.37393
RightToes  -5.82073e-011 -3.18055e-015 -2.98177e-016
Spine  10.4439 1.52317 -2.19027
Spine1  6.48143 0.515438 4.07661
HEad  7.06189 -2.06739 2.30975
LeftShoulder1  -3.88251e-019 9.70628e-020 -3.87848e-018
LeftArm  -14.5316 52.0333 -69.1045
LeftForeArm  4.67675 -19.2619 -3.64532
LeftHand  -0.891412 -3.58508 12.2531
RightShoulder  6.47978 9.84818 31.5582
RightArm  0.109725 -22.5444 30.9317
RightForeArm  27.6731 10.6516 -5.21475
RightHand  -1.748 6.25782 -17.2545
LeftUpLeg  -13.4595 3.17274 -4.50418
LeftLeg  20.2293 9.24661 10.2124
LeftFoot  -13.4693 -0.0579966 -6.61861
LeftToes  -2.27483e-011 -5.53417e-011 9.36564e-012
47
root  -5.87832 39.3887 86.7827 -174.611 9.92418 179.864
RightUpLeg  -24.7891 -13.652 6.38604
RightLeg  17.7426 4.66073 -2.46402
RightFoot  -4.40806 -0.069738 1.01015
RightToes  -5.82073e-011 -3.18055e-015 -2.98177e-016
Spine  11.4134 1.39156 -0.715739
Spine1  6.22196 0.39856 4.10114
HEad  5.05877 -1.64491 1.38151
LeftShoulder1  -3.88251e-019 9.70628e-020 -3.87848e-018
LeftArm  -16.874 50.5169 -68.329
LeftForeArm  8.09728 -16.8758 -4.50884
LeftHand  -0.881879 -3.64239 12.0492
RightShoulder  6.27333 9.76992 30.6096
RightArm  1.66455 -21.2439 32.6165
RightForeArm  23.3921 13.4224 -5.63517
RightHand  -1.68151 5.3186 -18.0153
LeftUpLeg  -16.5654 4.44906 -3.95511
LeftLeg  22.1719 7.78424 10.4866
LeftFoot  -13.9298 -0.0844646 -6.44604
LeftToes  -2.27483e-011 -5.53417e-011 9.36564e-012
48
root  -5.70588 39.0995 86.7707 -172.108 8.91765 -179.451
RightUpLeg  -28.0568 -9.86207 6.72742
RightLeg  19.243 2.05922 -2.9713
RightFoot  -3.30411 0.113091 -1.29197
RightToes  -5.82073e-011 -3.18055e-015 -2.98177e-016
Spine  12.4536 0.935173 2.19275
Spine1  5.33166 0.209662 3.17016
HEad  3.16709 -2.02981 1.02709
LeftShoulder1  -3.88251e-019 9.70628e-020 -3.87848e-018
LeftArm  -17.8152 47.9835 -67.4905
LeftForeArm  11.971 -13.4697 -4.9349
LeftHand  -0.908044 -4.03541 11.8741
RightShoulder  6.31468 9.78205 30.8065
RightArm  5.59812 -20.1289 32.8679
RightForeArm  16.8028 16.5103 -6.88968
RightHand  -1.568 4.00554 -19.1004
LeftUpLeg  -21.2034 5.41347 -3.28539
LeftLeg  25.7359 5.30679 10.8782
LeftFoot  -15.4211 -0.183894 -6.88865
LeftToes  -2.27483e-011 -5.53417e-011 9.36564e-012
49
root  -5.59818 38.7461 86.7735 -169.962 7.9135 -178.586
RightUpLeg  -31.6147 -10.951 8.68153
RightLeg  21.9168 2.76192 -3.65489
RightFoot  -3.73991 0.210391 -2.47575
RightToes  -5.82073e-011 -3.18055e-015 -2.98177e-016
Spine  14.1057 0.781816 4.92343
Spine1  4.47303 0.0184167 3.53032
HEad  1.1474 -2.64075 0.0693365
LeftShoulder1  -3.88251e-019 9.70628e-020 -3.87848e-018
LeftArm  -18.4327 44.9973 -68.1649
LeftForeArm  14.5021 -10.3433 -4.87479
LeftHand  -0.931477 -4.18041 11.9901
RightShoulder  6.089 9.65268 29.8486
RightArm  9.75275 -18.9901 33.6642
RightForeArm  10.3202 18.8935 -8.84612
RightHand  -1.52128 2.78524 -21.1641
LeftUpLeg  -25.6637 6.74132 -2.62113
LeftLeg  29.8882 4.0705 11.977
LeftFoot  -17.9739 -0.381161 -7.79662
LeftToes  -2.27483e-011 -5.53417e-011 9.36564e-012
